<?xml version="1.0" standalone="no"?>
<!DOCTYPE svg PUBLIC "-//W3C//DTD SVG 20010904//EN"
 "http://www.w3.org/TR/2001/REC-SVG-20010904/DTD/svg10.dtd">
<svg version="1.0" xmlns="http://www.w3.org/2000/svg"
 width="366.000000pt" height="366.000000pt" viewBox="0 0 366.000000 366.000000"
 preserveAspectRatio="xMidYMid meet">
<metadata>
Created by potrace 1.11, written by Peter Selinger 2001-2013
</metadata>
<g transform="translate(0.000000,366.000000) scale(0.100000,-0.100000)"
fill="#000000" stroke="none">
<path d="M1719 3621 c-3 -7 -33 -12 -77 -14 -39 -1 -72 -4 -72 -7 0 -5 -17 -8
-75 -14 -11 -1 -24 -4 -30 -7 -5 -4 -28 -10 -50 -14 -68 -12 -246 -75 -354
-126 -402 -189 -742 -558 -896 -973 -29 -79 -97 -312 -94 -324 1 -4 -12 -114
-17 -142 -6 -35 -6 -297 0 -340 3 -19 8 -55 11 -80 31 -230 115 -466 237 -668
29 -48 56 -91 60 -97 4 -5 27 -35 50 -65 65 -85 77 -98 172 -192 178 -178 402
-319 636 -403 83 -30 195 -62 240 -70 19 -3 42 -8 50 -10 8 -2 39 -7 69 -10
30 -4 63 -9 75 -11 32 -7 266 -6 343 1 37 3 113 15 168 25 685 132 1231 649
1394 1324 17 67 33 144 36 171 3 28 9 66 11 85 6 41 6 306 0 335 -2 11 -7 46
-11 79 -22 183 -95 413 -187 586 -117 219 -262 395 -468 565 -47 39 -86 73
-88 78 -2 4 -8 7 -14 7 -6 0 -26 11 -44 25 -18 14 -38 25 -44 25 -6 0 -8 5 -5
11 5 7 14 4 28 -8 15 -12 18 -13 10 -2 -10 12 -10 18 0 29 10 10 9 11 -3 4 -8
-5 -19 -9 -25 -10 -5 -1 -14 -3 -20 -5 -5 -1 -18 1 -28 6 -13 5 -15 11 -7 20
9 11 7 12 -9 8 -12 -3 -27 -1 -34 5 -6 5 -29 15 -49 21 -21 7 -38 17 -38 22 0
6 -4 7 -10 4 -5 -3 -10 -1 -10 5 0 6 -4 8 -10 5 -5 -3 -10 -1 -10 6 0 7 -3 10
-6 6 -9 -9 -65 14 -58 24 3 5 0 9 -5 9 -6 0 -11 -5 -11 -11 0 -8 -4 -8 -12 -2
-7 5 -32 15 -56 22 -23 6 -40 16 -37 21 3 4 -4 6 -15 3 -11 -3 -28 -2 -37 2
-10 4 -27 9 -38 11 -47 8 -149 32 -136 33 8 1 11 4 8 7 -4 4 -13 1 -22 -6 -12
-10 -15 -10 -15 0 0 8 -3 10 -7 7 -3 -4 -11 1 -18 10 -9 13 -14 13 -20 3 -5
-9 -4 -11 3 -6 7 4 12 2 12 -3 0 -6 -9 -11 -20 -11 -11 0 -18 6 -16 13 1 6 1
9 -1 5 -7 -12 -48 -9 -62 5 -11 10 -13 10 -7 0 5 -9 -1 -13 -21 -13 -22 0 -25
2 -13 10 8 5 10 10 5 10 -6 0 -16 -5 -23 -12 -9 -9 -12 -9 -12 1 0 7 -5 9 -12
4 -21 -13 -88 -13 -88 0 0 8 -3 8 -8 2 -10 -14 -45 -16 -53 -3 -4 7 -8 7 -10
-1z m188 -86 c0 -8 -4 -12 -9 -9 -5 3 -6 10 -3 15 9 13 12 11 12 -6z m-202 -4
c3 -5 2 -12 -3 -15 -5 -3 -9 1 -9 9 0 17 3 19 12 6z m45 -12 c0 -5 -4 -9 -8
-9 -5 0 -9 7 -9 15 0 8 4 12 9 9 4 -3 8 -9 8 -15z m33 4 c-3 -7 -6 -13 -8 -13
-2 0 -5 6 -8 13 -3 8 1 14 8 14 7 0 11 -6 8 -14z m58 -6 c-10 -9 -11 -8 -5 6
3 10 9 15 12 12 3 -3 0 -11 -7 -18z m38 10 c8 -10 7 -14 -2 -14 -8 0 -14 6
-14 14 0 7 1 13 2 13 2 0 8 -6 14 -13z m64 -8 c-8 -8 -13 -7 -18 2 -5 8 -4 10
3 5 7 -4 12 -2 12 5 0 7 3 9 7 6 4 -4 2 -12 -4 -18z m64 15 c-3 -3 -12 -4 -19
-1 -8 3 -5 6 6 6 11 1 17 -2 13 -5z m-357 -10 c0 -8 -19 -13 -24 -6 -3 5 1 9
9 9 8 0 15 -2 15 -3z m395 -12 c-3 -3 -11 0 -18 7 -9 10 -8 11 6 5 10 -3 15
-9 12 -12z m40 9 c3 -5 2 -12 -3 -15 -5 -3 -9 1 -9 9 0 17 3 19 12 6z m-562
-16 c-3 -9 -8 -14 -10 -11 -3 3 -2 9 2 15 9 16 15 13 8 -4z m-196 -54 c0 -11
-5 -18 -9 -15 -4 3 -5 11 -1 19 7 21 12 19 10 -4z m-41 -6 c-20 -15 -36 -19
-36 -10 0 5 38 23 50 24 3 0 -4 -6 -14 -14z m1080 -3 c-3 -3 0 -12 6 -21 10
-13 10 -14 -2 -4 -16 15 -23 46 -8 37 5 -3 7 -9 4 -12z m-1408 -152 c-7 -10
-14 -17 -17 -15 -4 4 18 35 25 35 2 0 -1 -9 -8 -20z m-31 -15 c0 -8 -4 -12 -9
-9 -5 3 -6 10 -3 15 9 13 12 11 12 -6z m-37 -35 c0 -5 -4 -10 -10 -10 -5 0
-10 5 -10 10 0 6 5 10 10 10 6 0 10 -4 10 -10z m-48 -37 c-19 -9 -22 -12 -9
-13 10 0 15 -4 12 -10 -3 -5 -1 -10 4 -10 6 0 11 -4 11 -10 0 -5 -6 -7 -13 -4
-8 3 -14 -2 -14 -11 0 -8 4 -15 8 -15 4 0 9 -7 13 -15 5 -13 2 -14 -17 -4 -12
6 -19 8 -15 4 4 -5 2 -15 -5 -24 -10 -14 -10 -14 5 -3 20 16 37 -4 18 -21 -10
-9 -11 -9 -6 0 5 9 2 11 -10 6 -15 -6 -15 -7 1 -15 15 -9 15 -12 1 -33 -13
-20 -13 -24 -1 -29 10 -3 12 0 8 11 -4 10 -2 14 4 10 7 -5 10 2 9 17 -2 17 1
23 11 19 8 -3 11 -8 9 -11 -3 -3 -1 -11 6 -19 9 -11 8 -13 -3 -11 -8 2 -15 -7
-17 -19 -2 -13 2 -23 8 -23 6 0 9 4 6 8 -3 5 1 9 9 9 21 0 19 -10 -5 -24 -16
-11 -21 -10 -29 5 -6 9 -11 12 -11 6 0 -19 24 -34 39 -24 15 9 41 3 41 -9 0
-4 -7 -8 -15 -8 -8 0 -11 5 -8 11 4 6 -1 5 -10 -3 -9 -7 -17 -19 -17 -25 0 -7
3 -8 8 -1 6 9 16 11 38 6 3 0 -2 -9 -13 -18 -10 -10 -14 -15 -8 -11 7 4 15 5
18 1 4 -3 7 -1 7 6 0 7 5 9 13 5 8 -5 8 -2 -2 9 -7 9 -9 17 -3 17 17 0 21 -25
26 -179 1 -60 26 -68 27 -9 1 24 1 49 0 56 -3 18 36 15 43 -4 3 -8 2 -12 -3
-9 -5 3 -13 1 -16 -5 -4 -6 -3 -10 2 -9 27 5 35 -1 23 -16 -7 -9 -10 -18 -6
-22 3 -3 6 -1 6 5 0 7 5 12 11 12 5 0 7 -6 3 -12 -5 -8 0 -7 11 2 17 14 18 13
12 -2 -4 -11 -1 -19 6 -20 7 0 17 -2 22 -3 6 -2 15 -3 21 -4 7 0 15 -8 18 -17
3 -8 2 -12 -4 -9 -6 3 -10 1 -10 -4 0 -13 3 -13 24 -5 13 5 14 9 5 20 -7 9 -8
14 -1 14 5 0 13 -7 16 -16 3 -8 11 -12 17 -8 6 3 15 0 20 -7 6 -11 14 -9 39
10 l32 23 -18 -29 -18 -28 22 19 c23 20 31 9 10 -13 -9 -10 -9 -12 -1 -7 6 3
14 2 18 -4 3 -5 11 -10 18 -10 6 0 2 7 -9 16 -18 14 -17 15 21 10 30 -4 36 -3
23 5 -10 5 -18 18 -18 27 1 16 1 16 11 0 5 -10 14 -18 19 -18 6 0 10 8 10 18
0 14 -2 15 -10 2 -8 -13 -10 -12 -10 3 0 17 15 23 24 9 8 -13 78 -14 108 -1
15 6 30 19 33 29 3 10 13 21 22 24 12 5 13 9 3 21 -20 24 -5 17 16 -7 10 -12
13 -18 7 -14 -7 4 -13 2 -13 -3 0 -6 4 -11 10 -11 5 0 20 -11 34 -25 29 -29
71 -33 98 -8 17 15 18 15 18 0 0 -10 7 -17 15 -17 11 0 15 11 15 43 0 62 2 77
12 71 4 -3 8 3 9 13 0 16 1 16 8 -2 5 -11 18 -28 29 -38 17 -15 20 -16 25 -3
4 10 1 13 -8 10 -8 -3 -19 4 -26 18 -11 21 -11 22 4 10 9 -8 21 -11 27 -7 5 3
13 -1 17 -10 6 -16 7 -16 15 -1 8 14 12 15 26 4 10 -8 13 -9 9 -1 -4 7 0 17
10 23 16 11 16 11 -2 5 -11 -3 -16 -3 -12 1 4 4 2 12 -3 19 -7 8 -5 12 5 12 8
0 12 -4 10 -8 -3 -4 2 -9 10 -13 8 -3 15 -13 15 -21 0 -9 -4 -14 -9 -11 -5 4
-7 -4 -3 -16 3 -11 1 -19 -4 -16 -5 4 -9 -4 -9 -15 -1 -12 -5 -33 -9 -45 -7
-20 -5 -23 10 -20 11 2 22 17 28 36 9 31 14 34 66 34 53 0 59 -3 70 -37 13
-38 46 -50 46 -16 0 11 -3 18 -7 15 -10 -6 -21 45 -13 58 4 6 3 8 -4 4 -10 -6
-19 12 -28 58 -5 32 22 43 37 14 9 -16 8 -19 -2 -13 -8 6 -10 4 -5 -4 5 -7 15
-10 23 -7 10 4 13 2 10 -8 -4 -10 0 -12 14 -9 11 3 19 2 18 -3 -1 -5 -1 -35 0
-66 1 -48 4 -58 19 -58 14 0 17 8 16 35 -2 28 2 35 15 33 9 -2 19 -7 23 -13 5
-6 8 -5 8 4 0 8 6 11 16 7 10 -4 13 -2 8 6 -4 7 -3 8 4 4 7 -4 12 -23 12 -42
0 -24 5 -34 15 -34 15 0 19 10 16 42 -1 9 3 20 10 24 7 4 9 3 5 -4 -7 -11 9
-25 32 -28 8 -2 22 -10 32 -19 10 -9 31 -15 47 -14 15 2 34 0 40 -4 9 -6 11
-3 7 10 -5 14 -4 15 4 4 15 -21 63 -26 56 -6 -3 8 -11 12 -17 8 -6 -3 -7 -1
-3 5 4 6 13 9 21 6 8 -4 12 -10 9 -16 -3 -5 0 -9 7 -7 34 4 40 0 29 -22 -7
-11 -9 -23 -7 -26 3 -2 8 5 12 16 3 12 11 18 17 15 7 -4 8 -2 4 4 -4 6 -1 24
7 39 l15 27 0 -27 c0 -17 -5 -24 -12 -20 -6 3 -2 -3 8 -15 11 -12 24 -22 30
-21 6 0 6 3 -2 6 -6 2 -9 10 -6 15 5 7 2 8 -6 3 -9 -5 -11 -4 -6 4 6 8 12 9
20 2 7 -6 22 -9 34 -6 12 2 22 0 22 -6 0 -5 5 -9 10 -9 6 0 9 3 9 8 -3 18 2
26 10 14 7 -11 9 -11 14 0 3 10 -3 14 -18 14 -13 0 -22 -3 -20 -6 2 -4 -2 -7
-10 -7 -29 0 -5 27 27 31 3 1 10 4 14 9 16 16 24 6 20 -25 -3 -18 -3 -28 0
-22 3 7 21 10 47 7 55 -7 92 20 82 58 -4 15 -17 31 -31 38 -28 12 -31 29 -8
38 13 5 13 8 2 15 -9 7 -7 8 10 5 12 -3 22 -1 22 5 0 5 4 7 9 4 11 -7 8 21 -4
31 -4 4 -5 2 0 -5 6 -11 3 -12 -12 -3 -11 6 -22 8 -25 6 -3 -3 -5 2 -5 10 0
11 4 12 13 4 10 -8 19 -6 36 5 12 9 17 16 10 16 -8 0 -10 5 -6 13 4 7 3 9 -2
4 -5 -5 -9 -13 -9 -18 0 -14 -19 -6 -22 9 -1 8 1 11 4 9 3 -3 11 0 18 6 10 10
9 14 -9 24 -11 7 -15 12 -8 13 21 0 34 49 17 66 -8 8 -11 22 -8 31 5 12 3 14
-8 8 -11 -6 -12 -5 -1 6 9 10 15 10 24 1 7 -7 17 -12 22 -12 6 0 4 4 -4 10 -8
5 -14 20 -15 34 0 15 -3 25 -6 24 -3 -2 -12 2 -20 8 -8 6 -22 10 -31 9 -24 -4
-23 7 2 23 17 10 23 10 34 0 25 -24 56 -48 62 -48 12 0 182 -172 241 -245 146
-181 278 -444 324 -644 6 -25 13 -55 15 -66 25 -108 38 -235 38 -375 -1 -95
-11 -237 -19 -250 -1 -3 -6 -26 -9 -51 -3 -25 -15 -80 -26 -122 -141 -537
-538 -978 -1056 -1172 -246 -92 -492 -125 -769 -102 -300 24 -630 154 -878
344 -327 252 -570 644 -641 1038 -3 17 -8 41 -11 54 -18 93 -24 301 -12 443
19 230 113 510 238 715 97 158 250 335 378 435 36 29 68 56 69 61 2 4 7 5 12
2 4 -3 13 2 20 11 11 12 15 12 21 2 6 -9 0 -17 -19 -25z m1983 18 c3 -5 0 -13
-6 -17 -8 -5 -9 -3 -4 6 6 10 4 12 -9 7 -10 -4 -15 -3 -11 3 8 13 22 13 30 1z
m2 -81 c1 -11 -2 -22 -6 -24 -6 -4 -7 26 -2 42 3 8 7 -1 8 -18z m49 2 c-2 -8
-9 -18 -17 -22 -10 -6 -14 -2 -14 14 0 13 6 22 16 22 9 0 16 -7 15 -14z m-966
-287 c0 -5 -5 -3 -10 5 -5 8 -10 20 -10 25 0 6 5 3 10 -5 5 -8 10 -19 10 -25z
m75 15 c-4 -12 -2 -20 5 -20 7 0 9 -7 6 -16 -3 -8 -2 -12 4 -9 6 3 10 -1 10
-9 0 -12 -11 -16 -42 -16 -42 0 -42 0 -20 16 12 8 22 21 21 27 -2 13 11 47 18
47 2 0 1 -9 -2 -20z m-160 -30 c-3 -5 -12 -10 -18 -10 -7 0 -6 4 3 10 19 12
23 12 15 0z m29 -7 c4 -10 4 -14 0 -10 -4 4 -14 1 -22 -6 -13 -11 -14 -9 -1
11 17 26 15 26 23 5z m101 8 c3 -5 1 -12 -5 -16 -5 -3 -10 1 -10 9 0 18 6 21
15 7z m858 -6 c-3 -9 -8 -14 -10 -11 -3 3 -2 9 2 15 9 16 15 13 8 -4z m-1169
-48 c3 3 6 -2 6 -12 0 -13 -3 -15 -13 -6 -8 6 -17 8 -20 4 -14 -13 -6 -21 21
-20 23 1 28 6 26 23 -1 11 4 21 11 21 18 0 9 -47 -12 -62 -20 -15 -68 -4 -68
16 0 8 -5 21 -10 29 -8 13 -7 13 10 0 17 -14 18 -13 12 3 -5 14 -3 16 12 8 10
-6 21 -7 25 -4z m1162 -14 c10 10 44 -12 44 -28 0 -14 -21 -21 -45 -15 -5 1
-15 3 -22 3 -8 0 -9 6 -3 16 5 9 4 24 -1 36 -10 20 -10 20 5 1 9 -11 19 -17
22 -13z m-1378 -14 c-2 16 3 25 15 26 9 2 15 -1 11 -6 -3 -5 -10 -7 -15 -4 -5
4 -9 2 -9 -3 0 -16 13 -22 25 -12 8 7 12 5 12 -5 0 -8 -4 -12 -9 -9 -4 3 -8 0
-8 -5 0 -6 -16 -11 -35 -11 -19 0 -35 2 -35 4 0 2 -3 12 -7 22 -5 14 -3 16 12
11 13 -6 16 -4 9 6 -5 7 1 1 14 -13 l22 -25 -2 24z m786 22 c-9 -9 -34 -9 -34
-1 0 5 9 8 20 7 10 -1 17 -3 14 -6z m115 -24 c8 -10 7 -14 -4 -14 -8 0 -15 6
-15 14 0 7 2 13 4 13 2 0 9 -6 15 -13z m-1243 -12 c-1 -8 -5 -17 -8 -21 -5 -4
-4 16 1 34 3 9 9 -1 7 -13z m1315 -12 c13 -16 12 -17 -3 -4 -17 13 -22 21 -14
21 2 0 10 -8 17 -17z"/>
<path d="M2834 3188 c-4 -7 -4 -10 1 -6 4 4 15 2 24 -5 14 -11 14 -10 2 6 -16
20 -18 21 -27 5z"/>
<path d="M795 3120 c3 -5 8 -10 11 -10 2 0 4 5 4 10 0 6 -5 10 -11 10 -5 0 -7
-4 -4 -10z"/>
<path d="M2875 3070 c3 -5 8 -10 11 -10 2 0 4 5 4 10 0 6 -5 10 -11 10 -5 0
-7 -4 -4 -10z"/>
<path d="M794 3028 l-19 -23 23 19 c21 18 27 26 19 26 -2 0 -12 -10 -23 -22z"/>
<path d="M2882 2994 c-7 -8 -8 -14 -3 -14 10 0 25 19 20 25 -2 1 -10 -3 -17
-11z"/>
<path d="M796 2978 c3 -5 10 -6 15 -3 13 9 11 12 -6 12 -8 0 -12 -4 -9 -9z"/>
<path d="M2045 2870 c-3 -5 -1 -10 4 -10 6 0 11 5 11 10 0 6 -2 10 -4 10 -3 0
-8 -4 -11 -10z"/>
<path d="M2830 2820 c0 -5 5 -10 11 -10 5 0 7 5 4 10 -3 6 -8 10 -11 10 -2 0
-4 -4 -4 -10z"/>
<path d="M2096 2802 c-3 -5 1 -9 9 -9 8 0 12 4 9 9 -3 4 -7 8 -9 8 -2 0 -6 -4
-9 -8z"/>
<path d="M2219 2748 c-6 -21 -5 -37 2 -32 5 3 7 9 4 14 -3 4 1 11 7 13 10 4
10 6 1 6 -7 1 -13 0 -14 -1z"/>
<path d="M1034 2702 c4 -3 14 -7 22 -8 9 -1 13 0 10 4 -4 3 -14 7 -22 8 -9 1
-13 0 -10 -4z"/>
<path d="M1093 2689 c-2 -23 3 -25 10 -4 4 8 3 16 -1 19 -4 3 -9 -4 -9 -15z"/>
<path d="M2537 2693 c-4 -3 -7 -11 -7 -17 0 -6 5 -5 12 2 6 6 9 14 7 17 -3 3
-9 2 -12 -2z"/>
<path d="M1146 2672 c-3 -3 -6 -10 -6 -16 0 -6 5 -4 10 4 5 8 10 10 10 4 0 -6
-11 -20 -24 -33 -20 -19 -23 -32 -25 -94 -6 -253 199 -527 394 -527 l51 0 116
-163 c64 -90 118 -168 120 -174 2 -6 -24 -48 -56 -93 -120 -168 -217 -280
-325 -375 -61 -53 -121 -110 -133 -127 -20 -29 -21 -35 -10 -87 13 -63 37 -89
79 -85 15 1 40 2 55 3 50 2 74 40 145 229 19 52 53 126 75 165 49 87 200 317
208 317 6 0 97 -140 176 -271 53 -86 72 -130 134 -293 42 -109 74 -146 133
-147 86 -3 93 2 113 76 17 65 2 96 -78 167 -180 158 -268 256 -407 455 l-43
62 124 173 123 172 52 2 c62 1 92 19 138 82 58 79 275 447 275 466 0 10 -68
-78 -151 -195 -172 -243 -170 -241 -186 -231 -9 6 21 58 103 178 189 276 207
304 202 309 -3 3 -13 -7 -23 -22 -10 -15 -23 -33 -29 -40 -6 -6 -72 -97 -146
-202 -124 -175 -151 -204 -163 -183 -3 4 67 112 154 241 88 129 157 237 154
240 -4 3 -9 1 -13 -5 -45 -67 -318 -441 -326 -446 -6 -4 -14 -2 -17 4 -6 10
37 77 247 382 56 81 66 114 18 56 -15 -18 -33 -37 -39 -44 -25 -26 -253 -315
-284 -359 -41 -60 -46 -88 -26 -152 l15 -50 -67 -100 c-37 -55 -89 -131 -116
-168 l-49 -68 -62 88 c-34 49 -86 124 -115 167 l-53 78 18 56 c15 48 16 66 6
121 -29 168 -180 344 -359 416 -29 12 -49 26 -45 31 4 4 0 3 -10 -4 -12 -10
-17 -10 -20 -1 -4 13 -33 21 -42 11z"/>
<path d="M2646 2665 c-11 -8 -15 -15 -9 -15 6 0 16 7 23 15 16 19 11 19 -14 0z"/>
<path d="M2576 2654 c-5 -14 -4 -15 8 -5 8 7 21 9 27 5 8 -4 9 -3 5 4 -10 17
-33 15 -40 -4z"/>
<path d="M650 1063 c-63 -42 -110 -78 -103 -80 6 -2 32 11 57 29 l47 32 22
-27 c12 -15 33 -28 47 -29 25 -2 79 27 81 43 1 5 2 15 3 22 2 10 -31 87 -37
87 -1 0 -54 -35 -117 -77z m130 21 c17 -30 7 -51 -33 -74 -25 -14 -28 -13 -54
13 -24 24 -26 29 -12 37 9 5 27 18 40 29 32 27 43 26 59 -5z"/>
<path d="M2880 1125 c0 -2 8 -19 18 -37 10 -18 23 -46 30 -61 l12 -28 -73 7
c-39 3 -68 2 -64 -2 4 -4 41 -11 82 -15 65 -6 82 -12 126 -44 27 -21 53 -35
56 -31 4 3 4 7 2 9 -2 2 -28 20 -57 41 -41 30 -60 53 -84 102 -17 35 -35 64
-40 64 -4 0 -8 -2 -8 -5z"/>
<path d="M819 1018 c-8 -7 -54 -46 -102 -87 -49 -40 -86 -75 -83 -78 3 -3 25
12 51 32 44 37 46 37 65 20 30 -27 25 -49 -21 -90 -22 -20 -38 -39 -36 -42 10
-10 77 52 87 81 6 18 15 26 24 23 18 -7 65 28 76 57 8 22 -8 63 -33 85 -12 9
-18 9 -28 -1z m51 -66 c0 -17 -45 -62 -63 -62 -8 0 -25 9 -38 20 l-24 20 44
41 45 40 18 -23 c10 -13 18 -29 18 -36z"/>
<path d="M1573 1003 c9 -2 25 -2 35 0 9 3 1 5 -18 5 -19 0 -27 -2 -17 -5z"/>
<path d="M1643 1003 c-22 -8 -14 -48 13 -72 26 -22 29 -51 6 -59 -6 -2 -16 7
-21 20 -10 23 -10 23 -10 1 -1 -22 30 -40 49 -28 20 12 10 54 -16 71 -16 11
-24 24 -22 37 4 30 26 33 38 5 l10 -23 -3 25 c-2 24 -20 34 -44 23z"/>
<path d="M1712 1003 c9 -2 19 -12 21 -21 4 -16 5 -16 6 0 0 9 11 19 24 21 12
2 2 4 -23 4 -25 1 -37 -1 -28 -4z"/>
<path d="M1857 1003 c-4 -3 -7 -13 -7 -22 0 -11 3 -10 15 5 12 16 16 17 24 5
11 -17 5 -37 -21 -70 -28 -36 -24 -61 10 -60 23 2 24 2 5 6 -24 5 -31 27 -12
39 6 3 18 22 26 41 11 27 11 38 2 49 -12 15 -31 18 -42 7z"/>
<path d="M1925 999 c-9 -13 -8 -93 1 -121 8 -25 34 -19 45 10 6 15 5 21 -1 17
-6 -3 -10 -13 -10 -21 0 -9 -6 -14 -12 -11 -17 5 -18 119 -1 124 6 2 14 -6 16
-19 5 -21 5 -21 4 2 -2 26 -30 39 -42 19z"/>
<path d="M1996 994 c-9 -24 -7 -31 4 -14 7 11 10 -6 11 -55 1 -38 4 -57 6 -42
4 24 8 28 25 24 15 -4 18 -3 10 5 -16 16 4 49 26 42 14 -5 15 -4 2 5 -9 6 -10
11 -3 11 6 0 10 8 8 18 -2 9 -4 19 -4 22 -1 3 -10 -13 -22 -35 -33 -62 -39
-64 -39 -12 0 46 -12 62 -24 31z"/>
<path d="M1560 970 c0 -11 2 -20 4 -20 2 0 6 9 9 20 3 11 1 20 -4 20 -5 0 -9
-9 -9 -20z"/>
<path d="M2747 942 c-15 -15 -27 -31 -27 -34 0 -3 45 -45 100 -92 55 -47 100
-82 100 -77 0 5 -18 25 -40 45 -41 37 -44 58 -9 76 28 15 36 13 79 -26 22 -20
40 -32 40 -26 0 17 -69 72 -91 72 -12 0 -23 10 -29 26 -13 33 -49 63 -76 64
-11 0 -32 -13 -47 -28z m109 -35 c7 -22 -14 -67 -30 -67 -6 0 -29 16 -51 35
l-40 35 28 25 c28 25 29 25 58 8 16 -10 32 -26 35 -36z"/>
<path d="M1730 940 c0 -5 5 -10 11 -10 5 0 7 5 4 10 -3 6 -8 10 -11 10 -2 0
-4 -4 -4 -10z"/>
<path d="M1966 933 c-6 -14 -5 -15 5 -6 7 7 10 15 7 18 -3 3 -9 -2 -12 -12z"/>
<path d="M1560 932 c0 -5 14 -7 30 -4 17 2 30 6 30 8 0 2 -13 4 -30 4 -16 0
-30 -4 -30 -8z"/>
<path d="M835 837 c-44 -45 -84 -88 -89 -95 -8 -14 38 -72 58 -72 5 0 -4 15
-22 33 l-32 33 38 37 c35 35 62 47 62 30 0 -5 13 -17 28 -27 24 -17 24 -16 -5
15 l-33 35 39 38 c39 38 40 39 65 22 15 -9 26 -21 26 -26 0 -6 5 -10 12 -10 7
0 -3 16 -22 35 -19 19 -36 35 -39 34 -4 0 -42 -37 -86 -82z"/>
<path d="M2072 898 c5 -35 15 -46 14 -14 -1 14 -5 29 -10 33 -4 4 -6 -4 -4
-19z"/>
<path d="M1561 888 c-1 -25 2 -28 32 -27 29 2 29 2 5 6 -18 3 -28 12 -31 26
-4 18 -5 17 -6 -5z"/>
<path d="M2672 859 c-18 -17 -32 -34 -30 -39 2 -4 42 -49 89 -99 l87 -92 36
32 c20 17 34 34 31 37 -3 3 -19 -8 -36 -24 l-31 -29 -40 45 -40 44 34 28 c18
15 28 28 23 28 -6 0 -22 -11 -36 -24 l-26 -24 -38 38 c-35 36 -43 70 -16 70 6
0 15 9 21 20 14 27 11 25 -28 -11z"/>
<path d="M916 740 c-43 -55 -76 -105 -74 -110 2 -6 27 22 57 60 29 39 55 69
57 67 2 -2 -12 -42 -31 -90 -18 -48 -30 -87 -26 -87 5 0 19 8 32 18 64 48 129
93 129 89 0 -2 -24 -35 -54 -73 -30 -37 -52 -72 -49 -77 3 -5 12 2 21 15 9 13
22 30 29 38 77 95 121 156 113 158 -5 2 -49 -26 -97 -62 -48 -35 -89 -61 -91
-57 -1 4 16 51 38 106 22 54 40 100 40 102 0 17 -29 -13 -94 -97z"/>
<path d="M2617 813 c-3 -4 4 -28 15 -53 11 -25 25 -56 30 -70 6 -14 17 -38 25
-53 8 -16 13 -30 11 -32 -2 -3 -43 27 -92 66 -48 39 -90 68 -93 65 -3 -3 5
-14 18 -25 13 -10 60 -48 104 -85 98 -81 112 -85 81 -20 -8 16 -31 70 -51 119
-41 99 -41 100 -48 88z"/>
<path d="M1085 630 c-73 -114 -93 -154 -53 -108 37 43 130 196 126 207 -1 5
-34 -39 -73 -99z"/>
<path d="M2480 716 c0 -3 22 -37 48 -78 26 -40 58 -90 71 -110 12 -21 27 -38
33 -38 9 0 -21 57 -47 90 -7 8 -14 20 -16 25 -18 46 -89 135 -89 111z"/>
<path d="M1122 607 c-29 -56 -52 -110 -52 -119 0 -10 12 -25 26 -35 23 -15 29
-15 51 -2 27 15 142 219 124 219 -5 0 -34 -45 -63 -100 -54 -102 -67 -115 -99
-105 -30 10 -23 41 31 140 51 95 55 105 43 105 -5 0 -32 -46 -61 -103z"/>
<path d="M2380 653 c0 -5 25 -53 55 -107 30 -55 55 -103 55 -107 0 -20 24 -18
67 7 25 16 41 30 35 32 -7 2 -27 -6 -46 -18 l-34 -21 -59 111 c-51 96 -73 128
-73 103z"/>
<path d="M1245 525 c-27 -69 -45 -128 -42 -132 4 -3 12 7 18 23 6 16 22 56 35
89 19 50 30 64 25 33 0 -4 -3 -46 -6 -95 l-5 -88 22 29 c13 15 42 53 66 83 23
31 42 53 42 50 0 -6 -60 -158 -68 -171 -2 -5 1 -7 8 -4 13 4 109 238 103 251
-5 8 -24 -14 -101 -116 -44 -58 -56 -66 -54 -37 7 78 14 152 17 178 8 63 -13
30 -60 -93z"/>
<path d="M2310 632 c-19 -9 -36 -17 -38 -18 -4 -2 30 -83 77 -186 l31 -68 45
22 c53 26 61 44 10 22 -48 -20 -49 -19 -72 31 -22 49 -20 55 32 76 17 6 25 13
19 16 -7 2 -27 -2 -45 -10 l-33 -13 -23 49 c-13 28 -22 51 -21 52 2 1 18 7 36
15 35 13 52 30 30 29 -7 0 -29 -8 -48 -17z"/>
<path d="M2168 583 c-10 -2 -18 -11 -18 -19 0 -13 68 -230 77 -246 6 -12 63
13 78 35 16 23 14 40 -17 132 -34 103 -51 116 -120 98z m82 -41 c19 -42 50
-142 50 -163 0 -23 -58 -56 -65 -37 -3 7 -20 59 -39 115 l-33 102 26 9 c34 12
46 7 61 -26z"/>
<path d="M1539 549 c0 -8 -2 -21 -4 -29 -1 -8 -5 -32 -9 -52 -3 -21 -10 -56
-15 -78 -5 -22 -7 -40 -5 -40 3 0 0 -8 -5 -18 -6 -11 -6 -24 0 -33 7 -12 9
-11 10 4 1 9 3 20 4 25 1 4 5 26 10 49 8 45 12 46 72 28 7 -2 15 0 18 5 3 5
-12 13 -35 16 -44 7 -48 18 -30 85 10 36 11 37 47 28 34 -7 53 -5 42 5 -2 2
-25 7 -51 11 -37 6 -48 4 -49 -6z"/>
<path d="M1957 542 c-16 -3 -17 -12 -12 -74 3 -39 7 -73 9 -77 2 -3 7 -30 10
-60 3 -30 8 -56 10 -59 9 -9 74 9 86 24 15 17 8 139 -12 200 -10 30 -19 39
-43 44 -16 3 -38 4 -48 2z m59 -20 c17 -11 24 -39 38 -154 7 -52 -9 -78 -48
-78 -21 0 -24 6 -30 58 -7 64 -14 106 -22 141 -7 34 31 54 62 33z"/>
<path d="M1676 524 c-9 -8 -16 -18 -17 -22 0 -4 -2 -16 -4 -27 -2 -11 -6 -53
-9 -93 -4 -65 -2 -76 17 -96 19 -20 27 -22 53 -15 40 11 43 21 51 139 5 94 5
98 -18 114 -29 20 -53 20 -73 0z m72 -21 c9 -17 7 -101 -3 -168 -7 -47 -50
-70 -75 -40 -15 18 -8 171 9 204 14 26 57 28 69 4z"/>
<path d="M1812 518 c-16 -16 -16 -195 1 -228 16 -33 59 -38 86 -11 19 19 21
30 16 122 -2 56 -10 107 -16 115 -14 17 -71 18 -87 2z m67 -7 c14 -9 29 -123
25 -183 -5 -60 -66 -71 -83 -14 -15 49 -9 185 9 196 19 12 31 12 49 1z"/>
<path d="M2620 3460 c-9 -6 -10 -10 -3 -10 6 0 15 5 18 10 8 12 4 12 -15 0z"/>
<path d="M2662 3434 c10 -10 20 -16 22 -13 3 3 -5 11 -17 18 -21 13 -21 12 -5
-5z"/>
<path d="M2730 3420 c0 -5 5 -10 11 -10 5 0 7 5 4 10 -3 6 -8 10 -11 10 -2 0
-4 -4 -4 -10z"/>
<path d="M2718 3393 c7 -3 16 -2 19 1 4 3 -2 6 -13 5 -11 0 -14 -3 -6 -6z"/>
<path d="M2790 3346 c0 -2 7 -7 16 -10 8 -3 12 -2 9 4 -6 10 -25 14 -25 6z"/>
</g>
</svg>
